<svg width="800" height="600" xmlns="http://www.w3.org/2000/svg">
 <!-- Created with Method Draw - http://github.com/duopixel/Method-Draw/ -->
 <g>
  <title>background</title>
  <rect fill="#fff" id="canvas_background" height="602" width="802" y="-1" x="-1"/>
  <g display="none" overflow="visible" y="0" x="0" height="100%" width="100%" id="canvasGrid">
   <rect fill="url(#gridpattern)" stroke-width="0" y="0" x="0" height="100%" width="100%"/>
  </g>
 </g>
 <g>
  <title>Layer 1</title>
  <path stroke="#000" id="svg_1" d="m490.786946,193.941103l-88.319433,-12.222503l32.538753,-13.276457c17.896234,-7.302176 34.12275,-14.371159 36.05881,-15.708858c4.80925,-3.322773 -55.082762,-75.641569 -62.594127,-75.581701c-3.301895,0.029251 -26.31006,28.032486 -51.129174,62.236081c-24.998719,34.450588 -49.878015,60.687347 -55.780731,58.823333c-69.86234,-22.059122 -126.864727,-44.378099 -126.864727,-49.673064c0,-3.616731 21.919863,-35.879628 48.711088,-71.695392l48.711115,-65.119457l132.812521,0l132.812521,0l34.667749,42.843959l34.668036,42.843959l36.166364,-14.498436c25.071292,-10.050793 34.617767,-11.49402 31.117875,-4.705276c-30.814881,59.77926 -76.795551,129.482933 -84.968834,128.806776c-5.658652,-0.467772 -50.032055,-6.350692 -98.607781,-13.072943l-0.000026,-0.00002zm-411.909531,266.700836c-33.610621,-45.227622 -63.733532,-87.573662 -66.939507,-94.102591c-3.290235,-6.699625 6.295918,-30.639618 22.007514,-54.960038l27.836719,-43.090035l-28.45609,-13.135013c-37.869185,-17.479798 -23.792924,-22.863454 76.663292,-29.320978l79.393189,-5.103437l31.141718,64.296515c17.128196,35.363057 33.333426,68.863445 36.012011,74.445742c2.79347,5.821707 -10.575769,1.94822 -31.353384,-9.084185l-36.223363,-19.233881l-25.286688,38.14225c-13.907429,20.978587 -25.483875,40.480232 -25.725019,43.336987c-0.241717,2.856755 42.442666,6.125897 94.853416,7.264527l95.292034,2.070157l6.218754,54.467438c3.420458,29.957264 5.51202,54.867841 4.648375,55.356914c-0.863593,0.488584 -45.985704,3.137401 -100.271237,5.885591l-98.701144,4.996523l-61.110589,-82.232547l0,0.000061zm376.15348,79.912279c-57.700331,-68.051184 -58.703251,-62.989392 27.05762,-136.547493l55.052658,-47.219341l-5.847074,34.50644l-5.847335,34.50646l61.692735,0c33.930936,0 61.693048,-2.120322 61.693048,-4.711493c0,-2.5916 -18.82619,-31.698444 -41.83579,-64.68271c-23.0096,-32.984266 -41.748426,-62.73712 -41.642019,-66.117498c0.2389,-7.579765 120.852186,-70.169712 126.586149,-65.689251c2.271975,1.775343 24.655343,33.394861 49.740878,70.266332l45.610659,67.038039l-61.37041,77.351663c-33.754227,42.542888 -66.184565,81.500946 -72.067064,86.57293c-5.883178,5.071984 -38.778507,11.27104 -73.101028,13.775233c-65.513255,4.780616 -63.729827,3.629165 -73.335571,47.3435c-1.680986,7.650273 -21.28291,-9.708465 -52.387455,-46.392852l0,0.000041z" opacity="0.5" stroke-width="1.5" fill="#ffff00"/>
 </g>
</svg>