<svg width="800" height="600" xmlns="http://www.w3.org/2000/svg">
 <!-- Created with Method Draw - http://github.com/duopixel/Method-Draw/ -->
 <g>
  <title>background</title>
  <rect fill="#fff" id="canvas_background" height="602" width="802" y="-1" x="-1"/>
  <g display="none" overflow="visible" y="0" x="0" height="100%" width="100%" id="canvasGrid">
   <rect fill="url(#gridpattern)" stroke-width="0" y="0" x="0" height="100%" width="100%"/>
  </g>
 </g>
 <g>
  <title>Layer 1</title>
  <path id="svg_1" d="m396.635488,267.731939l-7.853146,-1.292154l2.893266,-1.403577c1.591289,-0.77198 3.034111,-1.519308 3.20626,-1.660728c0.427627,-0.351281 -4.897823,-7.996769 -5.565715,-7.990439c-0.293596,0.003092 -2.339426,2.963573 -4.54628,6.579551c-2.222824,3.64209 -4.43503,6.41582 -4.959885,6.218758c-6.211987,-2.332073 -11.280499,-4.691619 -11.280499,-5.251398c0,-0.382358 1.94906,-3.793167 4.33127,-7.579582l4.331272,-6.884379l11.809362,0l11.809362,0l3.082571,4.529431l3.082596,4.529431l3.215824,-1.532764c2.229277,-1.062562 3.078126,-1.215139 2.766925,-0.497438c-2.739983,6.319818 -6.828471,13.688836 -7.555219,13.617354c-0.503153,-0.049452 -4.448727,-0.67139 -8.767961,-1.382062l-0.000002,-0.000002zm-36.625979,28.195408c-2.988573,-4.781429 -5.667028,-9.25822 -5.952096,-9.948454c-0.29256,-0.708279 0.559818,-3.239197 1.956854,-5.810333l2.475172,-4.555445l-2.530245,-1.388623c-3.367235,-1.847951 -2.115608,-2.417107 6.816711,-3.099791l7.059447,-0.539531l2.769045,6.797378c1.522997,3.738555 2.963926,7.280191 3.202099,7.870347c0.248388,0.615466 -0.940371,0.205964 -2.787866,-0.960373l-3.220892,-2.033391l-2.24843,4.032369c-1.236614,2.21784 -2.265963,4.279539 -2.287405,4.581553c-0.021493,0.302014 3.773897,0.647625 8.434132,0.768l8.473133,0.218855l0.552956,5.758256c0.304139,3.167059 0.490115,5.800586 0.413322,5.85229c-0.076789,0.051653 -4.088935,0.331684 -8.915871,0.62222l-8.776262,0.528229l-5.433803,-8.693562l0,0.000006zm33.44664,8.448265c-5.130571,-7.194319 -5.219748,-6.65919 2.405897,-14.435696l4.895147,-4.991993l-0.519907,3.647994l-0.519931,3.647997l5.485566,0c3.017055,0 5.485594,-0.224159 5.485594,-0.498095c0,-0.273982 -1.673978,-3.351135 -3.719935,-6.838206c-2.045957,-3.487071 -3.712167,-6.63252 -3.702706,-6.989891c0.021242,-0.801327 10.745878,-7.418288 11.255728,-6.944617c0.202018,0.187688 2.192292,3.530479 4.422836,7.428503l4.055587,7.08721l-5.456906,8.177558c-3.001343,4.497601 -5.884968,8.616217 -6.408026,9.152424c-0.523118,0.536206 -3.448089,1.191566 -6.499963,1.456307c-5.825277,0.505403 -5.666699,0.383673 -6.520818,5.005119c-0.149469,0.808781 -1.892424,-1.026371 -4.658163,-4.904617l0,0.000004z" stroke-width="1.5" stroke="#000" fill="#ffcf0f"/>
 </g>
</svg>